<?xml version="1.0" encoding="iso-8859-1"?>
<!-- Generator: Adobe Illustrator 19.2.0, SVG Export Plug-In . SVG Version: 6.00 Build 0)  -->
<svg version="1.1" id="Layer_1" xmlns="http://www.w3.org/2000/svg" xmlns:xlink="http://www.w3.org/1999/xlink" x="0px" y="0px"
	 viewBox="0 0 297.172 477.857" style="enable-background:new 0 0 297.172 477.857;" xml:space="preserve">
<g>
	<path style="fill:#1C1D1F;" d="M128.209,477.857c-10.16-5.826-19.501-11.188-28.847-16.542
		c-31.881-18.264-63.743-36.561-95.683-54.721c-2.636-1.499-3.681-3.05-3.679-6.13c0.079-132.16,0.068-264.32,0.068-396.48
		c0-1.1,0-2.199,0-3.984c1.879,1.036,3.158,1.717,4.414,2.437c39.807,22.823,79.589,45.689,119.46,68.4
		c3.112,1.772,4.487,3.529,4.366,7.261c-0.313,9.656,0.031,19.332-0.178,28.994c-0.074,3.414,0.772,5.213,4.217,6.59
		c53.365,21.326,106.643,42.867,160.008,64.192c3.684,1.472,4.824,3.213,4.816,7.184c-0.142,73.996-0.124,147.992-0.038,221.989
		c0.004,3.326-0.885,5.305-3.811,7.191c-17.174,11.065-34.175,22.399-51.863,34.057c0-57.546,0-114.402,0-171.163
		c-2.172-0.814-3.152,0.648-4.306,1.348c-34.693,21.047-69.33,42.186-104.082,63.135c-3.248,1.958-4.508,3.933-4.507,7.798
		c0.01,40.83-0.204,81.661-0.355,122.492C128.204,473.56,128.209,475.217,128.209,477.857z"/>
	<path style="fill:#F8F8F8;" d="M128.541,115.77c54.466,22.166,108.713,44.242,163.728,66.632
		c-54.744,33.383-108.977,66.455-163.728,99.842C128.541,226.519,128.541,171.402,128.541,115.77z"/>
</g>
</svg>
